# xmcd
#
# Track frame offsets:
#	150
#	12460
#	27085
#	39574
#	54510
#	74394
#	86128
#	102524
#	119358
#	133248
#	158628
#	175464
#	200296
#	214943
#	228371
#	241523
#	255060
#
# Disc length: 3580 seconds
#
# Revision: 1
# Processed by: cddbd v1.5.2PL0 Copyright (c) Steve Scherf et al.
# Submitted via: audiograbber 1.83.01
#
DISCID=e30dfa11
DTITLE=Various Artist - Jazz à Saint-Germain des Prés - Les heures chaudes du 
DTITLE=jazz [CD1)
DYEAR=2006
DGENRE=Jazz
TTITLE0=Sidney Bechet - Les oignons
TTITLE1=Sidney Bechet - Si tu vois ma mère
TTITLE2=Sidney Bechet - Marchand de poissons
TTITLE3=Sidney Bechet - Petite fleur
TTITLE4=Albert Nicholas - Black and blue
TTITLE5=Albert Nicholas - Bugle Call Rag
TTITLE6=Albert Nicholas - Wolverine blues
TTITLE7=Albert Nicholas - High Society
TTITLE8=Albert Nicholas - I found a new baby
TTITLE9=Mezz Mezzrow - My Blue Heaven
TTITLE10=Mezz Mezzrow - Careless Love
TTITLE11=Mezz Mezzrow - Coquette
TTITLE12=Claude Luter - Saint Germain Dance
TTITLE13=Claude Luter - Creole Jazz
TTITLE14=Claude Luter - Passport to paradise
TTITLE15=Claude Luter - Reincarnation Rag
TTITLE16=Claude Luter - Summerset
EXTD=YEAR: 2006
EXTT0=
EXTT1=
EXTT2=
EXTT3=
EXTT4=
EXTT5=
EXTT6=
EXTT7=
EXTT8=
EXTT9=
EXTT10=
EXTT11=
EXTT12=
EXTT13=
EXTT14=
EXTT15=
EXTT16=
PLAYORDER=
